<svg version="1.1" xmlns="http://www.w3.org/2000/svg" xmlns:xlink="http://www.w3.org/1999/xlink" width="812" height="632"><defs/><g><g transform="translate(-86,-6) scale(1,1)"><path fill="#C0C0C0" stroke="none" d="M 462 34.5 C 462 28.1487248 467.1487248 23 473.5 23 C 479.8512752 23 485 28.1487248 485 34.5 C 485 40.8512752 479.8512752 46 473.5 46 C 467.1487248 46 462 40.8512752 462 34.5 Z" opacity="0.2"/></g><g transform="translate(-86,-6) scale(1,1)"><path fill="#ffffff" stroke="none" d="M 455 27.5 C 455 21.1487248 460.1487248 16 466.5 16 C 472.8512752 16 478 21.1487248 478 27.5 C 478 33.8512752 472.8512752 39 466.5 39 C 460.1487248 39 455 33.8512752 455 27.5 Z"/></g><g transform="translate(-86,-6) scale(1,1)"><path fill="none" stroke="#000000" d="M 455 27.5 C 455 21.1487248 460.1487248 16 466.5 16 C 472.8512752 16 478 21.1487248 478 27.5 C 478 33.8512752 472.8512752 39 466.5 39 C 460.1487248 39 455 33.8512752 455 27.5 Z" stroke-miterlimit="10"/></g><g transform="translate(-86,-6) scale(1,1)"><g><path fill="none" stroke="none"/><text fill="#000000" stroke="none" font-family="Arial" font-size="13px" font-style="normal" font-weight="bold" text-decoration="none" x="444" y="58.5">Product</text></g></g><g transform="translate(-86,-6) scale(1,1)"><rect fill="#C0C0C0" stroke="none" x="287" y="303" width="376" height="117" opacity="0.2"/></g><g transform="translate(-86,-6) scale(1,1)"><rect fill="#ffffff" stroke="none" x="280" y="296" width="376" height="117"/></g><g transform="translate(-86,-6) scale(1,1)"><path fill="none" stroke="#000000" d="M 280 296 L 656 296 L 656 413 L 280 413 L 280 296 Z Z" stroke-miterlimit="10"/></g><g transform="translate(-86,-6) scale(1,1)"><path fill="none" stroke="#000000" d="M 280 321 L 656 321" stroke-miterlimit="10"/></g><g transform="translate(-86,-6) scale(1,1)"><path fill="none" stroke="#000000" d="M 280 331 L 656 331" stroke-miterlimit="10"/></g><g transform="translate(-86,-6) scale(1,1)"><g><path fill="none" stroke="none"/><text fill="#000000" stroke="none" font-family="Arial" font-size="13px" font-style="italic" font-weight="bold" text-decoration="none" x="435.5" y="315.5">Expression</text></g></g><g transform="translate(-86,-6) scale(1,1)"><g><path fill="none" stroke="none"/><text fill="#000000" stroke="none" font-family="Arial" font-size="13px" font-style="normal" font-weight="normal" text-decoration="none" x="285" y="348.5">+eval(input: InternalRow = null): Any</text></g></g><g transform="translate(-86,-6) scale(1,1)"><g><path fill="none" stroke="none"/><text fill="#000000" stroke="none" font-family="Arial" font-size="13px" font-style="normal" font-weight="normal" text-decoration="none" x="285" y="363.5">+genCode(ctx: CodegenContext): ExprCode()</text></g></g><g transform="translate(-86,-6) scale(1,1)"><g><path fill="none" stroke="none"/><text fill="#000000" stroke="none" font-family="Arial" font-size="13px" font-style="normal" font-weight="normal" text-decoration="none" x="285" y="378.5">+dataType(): DataType</text></g></g><g transform="translate(-86,-6) scale(1,1)"><g><path fill="none" stroke="none"/><text fill="#000000" stroke="none" font-family="Arial" font-size="13px" font-style="normal" font-weight="normal" text-decoration="none" x="285" y="393.5">+sql(): String</text></g></g><g transform="translate(-86,-6) scale(1,1)"><g><path fill="none" stroke="none"/><text fill="#000000" stroke="none" font-family="Arial" font-size="13px" font-style="normal" font-weight="normal" text-decoration="none" x="285" y="408.5">+foldable(): Boolean</text></g></g><g transform="translate(-86,-6) scale(1,1)"><rect fill="#C0C0C0" stroke="none" x="279" y="121" width="382" height="132" opacity="0.2"/></g><g transform="translate(-86,-6) scale(1,1)"><rect fill="#C0C0C0" stroke="none" x="459" y="103" width="211" height="22" opacity="0.2"/></g><g transform="translate(-86,-6) scale(1,1)"><rect fill="#ffffff" stroke="none" x="272" y="114" width="382" height="132"/></g><g transform="translate(-86,-6) scale(1,1)"><path fill="none" stroke="#000000" d="M 272 114 L 654 114 L 654 246 L 272 246 L 272 114 Z Z" stroke-miterlimit="10"/></g><g transform="translate(-86,-6) scale(1,1)"><path fill="none" stroke="#000000" d="M 272 139 L 654 139" stroke-miterlimit="10"/></g><g transform="translate(-86,-6) scale(1,1)"><path fill="none" stroke="#000000" d="M 272 149 L 654 149" stroke-miterlimit="10"/></g><g transform="translate(-86,-6) scale(1,1)"><g><path fill="none" stroke="none"/><text fill="#000000" stroke="none" font-family="Arial" font-size="13px" font-style="italic" font-weight="bold" text-decoration="none" x="435" y="133.5">TreeNode</text></g></g><g transform="translate(-86,-6) scale(1,1)"><g><path fill="none" stroke="none"/><text fill="#000000" stroke="none" font-family="Arial" font-size="13px" font-style="normal" font-weight="normal" text-decoration="none" x="277" y="166.5">+children: Seq[BaseType]()</text></g></g><g transform="translate(-86,-6) scale(1,1)"><g><path fill="none" stroke="none"/><text fill="#000000" stroke="none" font-family="Arial" font-size="13px" font-style="normal" font-weight="normal" text-decoration="none" x="277" y="181.5">+foreach(f: BaseType =&gt; Unit): Unit()</text></g></g><g transform="translate(-86,-6) scale(1,1)"><g><path fill="none" stroke="none"/><text fill="#000000" stroke="none" font-family="Arial" font-size="13px" font-style="normal" font-weight="normal" text-decoration="none" x="277" y="196.5">+map[A](f: BaseType =&gt; A): Seq[A]()</text></g></g><g transform="translate(-86,-6) scale(1,1)"><g><path fill="none" stroke="none"/><text fill="#000000" stroke="none" font-family="Arial" font-size="13px" font-style="normal" font-weight="normal" text-decoration="none" x="277" y="211.5">+flatMap[A](f: BaseType =&gt; TraversableOnce[A]): Seq[A]()</text></g></g><g transform="translate(-86,-6) scale(1,1)"><g><path fill="none" stroke="none"/><text fill="#000000" stroke="none" font-family="Arial" font-size="13px" font-style="normal" font-weight="normal" text-decoration="none" x="277" y="226.5">+transform(rule: PartialFunction): TreeNode[BaseType]</text></g></g><g transform="translate(-86,-6) scale(1,1)"><g><path fill="none" stroke="none"/><text fill="#000000" stroke="none" font-family="Arial" font-size="13px" font-style="normal" font-weight="normal" text-decoration="none" x="277" y="241.5">+collect[B](pf: PartialFunction): Seq[B]()</text></g></g><g transform="translate(-86,-6) scale(1,1)"><rect fill="#ffffff" stroke="none" x="452" y="96" width="211" height="22"/></g><g transform="translate(-86,-6) scale(1,1)"><path fill="none" stroke="#000000" d="M 452 96 L 663 96 L 663 118 L 452 118 L 452 96 Z Z" stroke-miterlimit="10" stroke-dasharray="3"/></g><g transform="translate(-86,-6) scale(1,1)"><g><path fill="none" stroke="none"/><text fill="#000000" stroke="none" font-family="Arial" font-size="13px" font-style="normal" font-weight="normal" text-decoration="none" x="457" y="113.5">BaseType &lt;: TreeNode[BaseType]</text></g></g><g transform="translate(-86,-6) scale(1,1)"><rect fill="#C0C0C0" stroke="none" x="727" y="479" width="168" height="57" opacity="0.2"/></g><g transform="translate(-86,-6) scale(1,1)"><rect fill="#ffffff" stroke="none" x="720" y="472" width="168" height="57"/></g><g transform="translate(-86,-6) scale(1,1)"><path fill="none" stroke="#000000" d="M 720 472 L 888 472 L 888 529 L 720 529 L 720 472 Z Z" stroke-miterlimit="10"/></g><g transform="translate(-86,-6) scale(1,1)"><path fill="none" stroke="#000000" d="M 720 497 L 888 497" stroke-miterlimit="10"/></g><g transform="translate(-86,-6) scale(1,1)"><path fill="none" stroke="#000000" d="M 720 507 L 888 507" stroke-miterlimit="10"/></g><g transform="translate(-86,-6) scale(1,1)"><g><path fill="none" stroke="none"/><text fill="#000000" stroke="none" font-family="Arial" font-size="13px" font-style="normal" font-weight="bold" text-decoration="none" x="759" y="491.5">LeafExpression</text></g></g><g transform="translate(-86,-6) scale(1,1)"><g><path fill="none" stroke="none"/><text fill="#000000" stroke="none" font-family="Arial" font-size="13px" font-style="normal" font-weight="normal" text-decoration="none" x="725" y="524.5">+children(): nil</text></g></g><g transform="translate(-86,-6) scale(1,1)"><rect fill="#C0C0C0" stroke="none" x="103" y="199" width="128" height="44" opacity="0.2"/></g><g transform="translate(-86,-6) scale(1,1)"><rect fill="#ffffff" stroke="none" x="96" y="192" width="128" height="44"/></g><g transform="translate(-86,-6) scale(1,1)"><path fill="none" stroke="#000000" d="M 96 192 L 224 192 L 224 236 L 96 236 L 96 192 Z Z" stroke-miterlimit="10"/></g><g transform="translate(-86,-6) scale(1,1)"><path fill="none" stroke="#000000" d="M 96 217 L 224 217" stroke-miterlimit="10"/></g><g transform="translate(-86,-6) scale(1,1)"><path fill="none" stroke="#000000" d="M 96 227 L 224 227" stroke-miterlimit="10"/></g><g transform="translate(-86,-6) scale(1,1)"><g><path fill="none" stroke="none"/><text fill="#000000" stroke="none" font-family="Arial" font-size="13px" font-style="normal" font-weight="bold" text-decoration="none" x="110.5" y="211.5">UnaryExpression</text></g></g><g transform="translate(-86,-6) scale(1,1)"><rect fill="#C0C0C0" stroke="none" x="727" y="199" width="168" height="57" opacity="0.2"/></g><g transform="translate(-86,-6) scale(1,1)"><rect fill="#ffffff" stroke="none" x="720" y="192" width="168" height="57"/></g><g transform="translate(-86,-6) scale(1,1)"><path fill="none" stroke="#000000" d="M 720 192 L 888 192 L 888 249 L 720 249 L 720 192 Z Z" stroke-miterlimit="10"/></g><g transform="translate(-86,-6) scale(1,1)"><path fill="none" stroke="#000000" d="M 720 217 L 888 217" stroke-miterlimit="10"/></g><g transform="translate(-86,-6) scale(1,1)"><path fill="none" stroke="#000000" d="M 720 227 L 888 227" stroke-miterlimit="10"/></g><g transform="translate(-86,-6) scale(1,1)"><g><path fill="none" stroke="none"/><text fill="#000000" stroke="none" font-family="Arial" font-size="13px" font-style="normal" font-weight="bold" text-decoration="none" x="776.5" y="211.5">Predicate</text></g></g><g transform="translate(-86,-6) scale(1,1)"><g><path fill="none" stroke="none"/><text fill="#000000" stroke="none" font-family="Arial" font-size="13px" font-style="normal" font-weight="normal" text-decoration="none" x="725" y="244.5">+dataType(): BooleanType</text></g></g><g transform="translate(-86,-6) scale(1,1)"><rect fill="#C0C0C0" stroke="none" x="103" y="479" width="128" height="44" opacity="0.2"/></g><g transform="translate(-86,-6) scale(1,1)"><rect fill="#ffffff" stroke="none" x="96" y="472" width="128" height="44"/></g><g transform="translate(-86,-6) scale(1,1)"><path fill="none" stroke="#000000" d="M 96 472 L 224 472 L 224 516 L 96 516 L 96 472 Z Z" stroke-miterlimit="10"/></g><g transform="translate(-86,-6) scale(1,1)"><path fill="none" stroke="#000000" d="M 96 497 L 224 497" stroke-miterlimit="10"/></g><g transform="translate(-86,-6) scale(1,1)"><path fill="none" stroke="#000000" d="M 96 507 L 224 507" stroke-miterlimit="10"/></g><g transform="translate(-86,-6) scale(1,1)"><g><path fill="none" stroke="none"/><text fill="#000000" stroke="none" font-family="Arial" font-size="13px" font-style="normal" font-weight="bold" text-decoration="none" x="105.5" y="491.5">TernaryExpression</text></g></g><g transform="translate(-86,-6) scale(1,1)"><rect fill="#C0C0C0" stroke="none" x="727" y="295" width="168" height="57" opacity="0.2"/></g><g transform="translate(-86,-6) scale(1,1)"><rect fill="#ffffff" stroke="none" x="720" y="288" width="168" height="57"/></g><g transform="translate(-86,-6) scale(1,1)"><path fill="none" stroke="#000000" d="M 720 288 L 888 288 L 888 345 L 720 345 L 720 288 Z Z" stroke-miterlimit="10"/></g><g transform="translate(-86,-6) scale(1,1)"><path fill="none" stroke="#000000" d="M 720 313 L 888 313" stroke-miterlimit="10"/></g><g transform="translate(-86,-6) scale(1,1)"><path fill="none" stroke="#000000" d="M 720 323 L 888 323" stroke-miterlimit="10"/></g><g transform="translate(-86,-6) scale(1,1)"><g><path fill="none" stroke="none"/><text fill="#000000" stroke="none" font-family="Arial" font-size="13px" font-style="normal" font-weight="bold" text-decoration="none" x="747" y="307.5">NonSQLExpression</text></g></g><g transform="translate(-86,-6) scale(1,1)"><g><path fill="none" stroke="none"/><text fill="#000000" stroke="none" font-family="Arial" font-size="13px" font-style="normal" font-weight="normal" text-decoration="none" x="725" y="340.5">+sql(): ???</text></g></g><g transform="translate(-86,-6) scale(1,1)"><rect fill="#C0C0C0" stroke="none" x="103" y="391" width="128" height="44" opacity="0.2"/></g><g transform="translate(-86,-6) scale(1,1)"><rect fill="#ffffff" stroke="none" x="96" y="384" width="128" height="44"/></g><g transform="translate(-86,-6) scale(1,1)"><path fill="none" stroke="#000000" d="M 96 384 L 224 384 L 224 428 L 96 428 L 96 384 Z Z" stroke-miterlimit="10"/></g><g transform="translate(-86,-6) scale(1,1)"><path fill="none" stroke="#000000" d="M 96 409 L 224 409" stroke-miterlimit="10"/></g><g transform="translate(-86,-6) scale(1,1)"><path fill="none" stroke="#000000" d="M 96 419 L 224 419" stroke-miterlimit="10"/></g><g transform="translate(-86,-6) scale(1,1)"><g><path fill="none" stroke="none"/><text fill="#000000" stroke="none" font-family="Arial" font-size="13px" font-style="normal" font-weight="bold" text-decoration="none" x="116.5" y="403.5">BinaryOperator</text></g></g><g transform="translate(-86,-6) scale(1,1)"><rect fill="#C0C0C0" stroke="none" x="743" y="399" width="136" height="57" opacity="0.2"/></g><g transform="translate(-86,-6) scale(1,1)"><rect fill="#ffffff" stroke="none" x="736" y="392" width="136" height="57"/></g><g transform="translate(-86,-6) scale(1,1)"><path fill="none" stroke="#000000" d="M 736 392 L 872 392 L 872 449 L 736 449 L 736 392 Z Z" stroke-miterlimit="10"/></g><g transform="translate(-86,-6) scale(1,1)"><path fill="none" stroke="#000000" d="M 736 417 L 872 417" stroke-miterlimit="10"/></g><g transform="translate(-86,-6) scale(1,1)"><path fill="none" stroke="#000000" d="M 736 440 L 872 440" stroke-miterlimit="10"/></g><g transform="translate(-86,-6) scale(1,1)"><g><path fill="none" stroke="none"/><text fill="#000000" stroke="none" font-family="Arial" font-size="13px" font-style="normal" font-weight="bold" text-decoration="none" x="774.5" y="411.5">ScalaUDF</text></g></g><g transform="translate(-86,-6) scale(1,1)"><g><path fill="none" stroke="none"/><text fill="#000000" stroke="none" font-family="Arial" font-size="13px" font-style="normal" font-weight="normal" text-decoration="none" x="741" y="434.5">+function: AnyRef</text></g></g><g transform="translate(-86,-6) scale(1,1)"><rect fill="#C0C0C0" stroke="none" x="103" y="295" width="128" height="44" opacity="0.2"/></g><g transform="translate(-86,-6) scale(1,1)"><rect fill="#ffffff" stroke="none" x="96" y="288" width="128" height="44"/></g><g transform="translate(-86,-6) scale(1,1)"><path fill="none" stroke="#000000" d="M 96 288 L 224 288 L 224 332 L 96 332 L 96 288 Z Z" stroke-miterlimit="10"/></g><g transform="translate(-86,-6) scale(1,1)"><path fill="none" stroke="#000000" d="M 96 313 L 224 313" stroke-miterlimit="10"/></g><g transform="translate(-86,-6) scale(1,1)"><path fill="none" stroke="#000000" d="M 96 323 L 224 323" stroke-miterlimit="10"/></g><g transform="translate(-86,-6) scale(1,1)"><g><path fill="none" stroke="none"/><text fill="#000000" stroke="none" font-family="Arial" font-size="13px" font-style="normal" font-weight="bold" text-decoration="none" x="109" y="307.5">BinaryExpression</text></g></g><g transform="translate(-86,-6) scale(1,1)"><path fill="none" stroke="#000000" d="M 804 391 L 804 346" stroke-miterlimit="10"/></g><g transform="translate(-86,-6) scale(1,1)"><path fill="#FFFFFF" stroke="none" d="M 812.419035512032 366.3253497152483 L 804 346 L 795.580964487968 366.3253497152483"/></g><g transform="translate(-86,-6) scale(1,1)"><path fill="none" stroke="#000000" d="M 812.419035512032 366.3253497152483 L 804 346 L 795.580964487968 366.3253497152483 L 812.419035512032 366.3253497152483" stroke-miterlimit="10"/></g><g transform="translate(-86,-6) scale(1,1)"><path fill="none" stroke="#000000" d="M 160 383 L 160 333" stroke-miterlimit="10"/></g><g transform="translate(-86,-6) scale(1,1)"><path fill="#FFFFFF" stroke="none" d="M 168.41903551203197 353.3253497152483 L 160 333 L 151.58096448796803 353.3253497152483"/></g><g transform="translate(-86,-6) scale(1,1)"><path fill="none" stroke="#000000" d="M 168.41903551203197 353.3253497152483 L 160 333 L 151.58096448796803 353.3253497152483 L 168.41903551203197 353.3253497152483" stroke-miterlimit="10"/></g><g transform="translate(-86,-6) scale(1,1)"><path fill="none" stroke="#000000" d="M 468 295 L 468 247" stroke-miterlimit="10"/></g><g transform="translate(-86,-6) scale(1,1)"><path fill="#FFFFFF" stroke="none" d="M 476.419035512032 267.3253497152483 L 468 247 L 459.580964487968 267.3253497152483"/></g><g transform="translate(-86,-6) scale(1,1)"><path fill="none" stroke="#000000" d="M 476.419035512032 267.3253497152483 L 468 247 L 459.580964487968 267.3253497152483 L 476.419035512032 267.3253497152483" stroke-miterlimit="10"/></g><g transform="translate(-86,-6) scale(1,1)"><g><path fill="none" stroke="none"/><text fill="#000000" stroke="none" font-family="Arial" font-size="13px" font-style="normal" font-weight="normal" text-decoration="none" x="385" y="285">+TreeNode[Expression]</text></g></g><g transform="translate(-86,-6) scale(1,1)"><rect fill="#C0C0C0" stroke="none" x="407" y="471" width="128" height="72" opacity="0.2"/></g><g transform="translate(-86,-6) scale(1,1)"><rect fill="#ffffff" stroke="none" x="400" y="464" width="128" height="72"/></g><g transform="translate(-86,-6) scale(1,1)"><path fill="none" stroke="#000000" d="M 400 464 L 528 464 L 528 536 L 400 536 L 400 464 Z Z" stroke-miterlimit="10"/></g><g transform="translate(-86,-6) scale(1,1)"><path fill="none" stroke="#000000" d="M 400 489 L 528 489" stroke-miterlimit="10"/></g><g transform="translate(-86,-6) scale(1,1)"><path fill="none" stroke="#000000" d="M 400 499 L 528 499" stroke-miterlimit="10"/></g><g transform="translate(-86,-6) scale(1,1)"><g><path fill="none" stroke="none"/><text fill="#000000" stroke="none" font-family="Arial" font-size="13px" font-style="normal" font-weight="bold" text-decoration="none" x="411" y="483.5">NamedExpression</text></g></g><g transform="translate(-86,-6) scale(1,1)"><g><path fill="none" stroke="none"/><text fill="#000000" stroke="none" font-family="Arial" font-size="13px" font-style="normal" font-weight="normal" text-decoration="none" x="405" y="516.5">+name(): String</text></g></g><g transform="translate(-86,-6) scale(1,1)"><g><path fill="none" stroke="none"/><text fill="#000000" stroke="none" font-family="Arial" font-size="13px" font-style="normal" font-weight="normal" text-decoration="none" x="405" y="531.5">+exprId(): ExprId</text></g></g><g transform="translate(-86,-6) scale(1,1)"><path fill="none" stroke="#000000" d="M 465 463 L 466 414" stroke-miterlimit="10"/></g><g transform="translate(-86,-6) scale(1,1)"><path fill="#FFFFFF" stroke="none" d="M 474.002566123207 434.4928996348418 L 466 414 L 457.1680004746414 434.1493370705854"/></g><g transform="translate(-86,-6) scale(1,1)"><path fill="none" stroke="#000000" d="M 474.002566123207 434.4928996348418 L 466 414 L 457.1680004746414 434.1493370705854 L 474.002566123207 434.4928996348418" stroke-miterlimit="10"/></g><g transform="translate(-86,-6) scale(1,1)"><path fill="none" stroke="#000000" d="M 467 95 L 466 65" stroke-miterlimit="10"/></g><g transform="translate(-86,-6) scale(1,1)"><path fill="#FFFFFF" stroke="none" d="M 475.0914977393595 85.03358851666923 L 466 65 L 458.2627734110055 85.59454599428102"/></g><g transform="translate(-86,-6) scale(1,1)"><path fill="none" stroke="#000000" d="M 475.0914977393595 85.03358851666923 L 466 65 L 458.2627734110055 85.59454599428102 L 475.0914977393595 85.03358851666923" stroke-miterlimit="10"/></g><g transform="translate(-86,-6) scale(1,1)"><rect fill="#C0C0C0" stroke="none" x="567" y="591" width="62" height="44" opacity="0.2"/></g><g transform="translate(-86,-6) scale(1,1)"><rect fill="#ffffff" stroke="none" x="560" y="584" width="62" height="44"/></g><g transform="translate(-86,-6) scale(1,1)"><path fill="none" stroke="#000000" d="M 560 584 L 622 584 L 622 628 L 560 628 L 560 584 Z Z" stroke-miterlimit="10"/></g><g transform="translate(-86,-6) scale(1,1)"><path fill="none" stroke="#000000" d="M 560 609 L 622 609" stroke-miterlimit="10"/></g><g transform="translate(-86,-6) scale(1,1)"><path fill="none" stroke="#000000" d="M 560 619 L 622 619" stroke-miterlimit="10"/></g><g transform="translate(-86,-6) scale(1,1)"><g><path fill="none" stroke="none"/><text fill="#000000" stroke="none" font-family="Arial" font-size="13px" font-style="normal" font-weight="bold" text-decoration="none" x="566.5" y="603.5">Attribute</text></g></g><g transform="translate(-86,-6) scale(1,1)"><rect fill="#C0C0C0" stroke="none" x="783" y="591" width="50" height="44" opacity="0.2"/></g><g transform="translate(-86,-6) scale(1,1)"><rect fill="#ffffff" stroke="none" x="776" y="584" width="50" height="44"/></g><g transform="translate(-86,-6) scale(1,1)"><path fill="none" stroke="#000000" d="M 776 584 L 826 584 L 826 628 L 776 628 L 776 584 Z Z" stroke-miterlimit="10"/></g><g transform="translate(-86,-6) scale(1,1)"><path fill="none" stroke="#000000" d="M 776 609 L 826 609" stroke-miterlimit="10"/></g><g transform="translate(-86,-6) scale(1,1)"><path fill="none" stroke="#000000" d="M 776 619 L 826 619" stroke-miterlimit="10"/></g><g transform="translate(-86,-6) scale(1,1)"><g><path fill="none" stroke="none"/><text fill="#000000" stroke="none" font-family="Arial" font-size="13px" font-style="normal" font-weight="bold" text-decoration="none" x="783.5" y="603.5">Literal</text></g></g><g transform="translate(-86,-6) scale(1,1)"><path fill="none" stroke="#000000" d="M 802 583 L 803 530" stroke-miterlimit="10"/></g><g transform="translate(-86,-6) scale(1,1)"><path fill="#FFFFFF" stroke="none" d="M 811.0341084092694 550.48055424221 L 803 530 L 794.1990337498567 550.1629113241079"/></g><g transform="translate(-86,-6) scale(1,1)"><path fill="none" stroke="#000000" d="M 811.0341084092694 550.48055424221 L 803 530 L 794.1990337498567 550.1629113241079 L 811.0341084092694 550.48055424221" stroke-miterlimit="10"/></g><g transform="translate(-86,-6) scale(1,1)"><path fill="none" stroke="#000000" d="M 224 488 L 304 488 M 304 488 A 8 8 0 0 0 312 480 L 312 413" stroke-miterlimit="10"/></g><g transform="translate(-86,-6) scale(1,1)"><path fill="#FFFFFF" stroke="none" d="M 320.419035512032 433.3253497152483 L 312 413 L 303.580964487968 433.3253497152483"/></g><g transform="translate(-86,-6) scale(1,1)"><path fill="none" stroke="#000000" d="M 320.419035512032 433.3253497152483 L 312 413 L 303.580964487968 433.3253497152483 L 320.419035512032 433.3253497152483" stroke-miterlimit="10"/></g><g transform="translate(-86,-6) scale(1,1)"><path fill="none" stroke="#000000" d="M 720 488 L 612 488 M 612 488 A 8 8 0 0 1 604 480 L 604 413" stroke-miterlimit="10"/></g><g transform="translate(-86,-6) scale(1,1)"><path fill="#FFFFFF" stroke="none" d="M 612.419035512032 433.3253497152483 L 604 413 L 595.580964487968 433.3253497152483"/></g><g transform="translate(-86,-6) scale(1,1)"><path fill="none" stroke="#000000" d="M 612.419035512032 433.3253497152483 L 604 413 L 595.580964487968 433.3253497152483 L 612.419035512032 433.3253497152483" stroke-miterlimit="10"/></g><g transform="translate(-86,-6) scale(1,1)"><path fill="none" stroke="#000000" d="M 224 327 L 280 327" stroke-miterlimit="10"/></g><g transform="translate(-86,-6) scale(1,1)"><path fill="#FFFFFF" stroke="none" d="M 259.6746502847517 335.419035512032 L 280 327 L 259.6746502847517 318.580964487968"/></g><g transform="translate(-86,-6) scale(1,1)"><path fill="none" stroke="#000000" d="M 259.6746502847517 335.419035512032 L 280 327 L 259.6746502847517 318.580964487968 L 259.6746502847517 335.419035512032" stroke-miterlimit="10"/></g><g transform="translate(-86,-6) scale(1,1)"><path fill="none" stroke="#000000" d="M 160 236 L 160 256 M 160 256 A 8 8 0 0 0 168 264 L 320 264 M 320 264 A 8 8 0 0 1 328 272 L 328 296" stroke-miterlimit="10"/></g><g transform="translate(-86,-6) scale(1,1)"><path fill="#FFFFFF" stroke="none" d="M 319.580964487968 275.6746502847517 L 328 296 L 336.419035512032 275.6746502847517"/></g><g transform="translate(-86,-6) scale(1,1)"><path fill="none" stroke="#000000" d="M 319.580964487968 275.6746502847517 L 328 296 L 336.419035512032 275.6746502847517 L 319.580964487968 275.6746502847517" stroke-miterlimit="10"/></g><g transform="translate(-86,-6) scale(1,1)"><path fill="none" stroke="#000000" d="M 800 249 L 800 256 M 800 256 A 8 8 0 0 1 792 264 L 632 264 M 632 264 A 8 8 0 0 0 624 272 L 624 296" stroke-miterlimit="10"/></g><g transform="translate(-86,-6) scale(1,1)"><path fill="#FFFFFF" stroke="none" d="M 615.580964487968 275.6746502847517 L 624 296 L 632.419035512032 275.6746502847517"/></g><g transform="translate(-86,-6) scale(1,1)"><path fill="none" stroke="#000000" d="M 615.580964487968 275.6746502847517 L 624 296 L 632.419035512032 275.6746502847517 L 615.580964487968 275.6746502847517" stroke-miterlimit="10"/></g><g transform="translate(-86,-6) scale(1,1)"><path fill="none" stroke="#000000" d="M 720 333 L 656 333" stroke-miterlimit="10"/></g><g transform="translate(-86,-6) scale(1,1)"><path fill="#FFFFFF" stroke="none" d="M 676.3253497152483 324.580964487968 L 656 333 L 676.3253497152483 341.419035512032"/></g><g transform="translate(-86,-6) scale(1,1)"><path fill="none" stroke="#000000" d="M 676.3253497152483 324.580964487968 L 656 333 L 676.3253497152483 341.419035512032 L 676.3253497152483 324.580964487968" stroke-miterlimit="10"/></g><g transform="translate(-86,-6) scale(1,1)"><path fill="none" stroke="#000000" d="M 560 592 L 515 592 M 515 592 A 8 8 0 0 1 507 584 L 507 536" stroke-miterlimit="10"/></g><g transform="translate(-86,-6) scale(1,1)"><path fill="#FFFFFF" stroke="none" d="M 515.419035512032 556.3253497152483 L 507 536 L 498.580964487968 556.3253497152483"/></g><g transform="translate(-86,-6) scale(1,1)"><path fill="none" stroke="#000000" d="M 515.419035512032 556.3253497152483 L 507 536 L 498.580964487968 556.3253497152483 L 515.419035512032 556.3253497152483" stroke-miterlimit="10"/></g><g transform="translate(-86,-6) scale(1,1)"><path fill="none" stroke="#000000" d="M 622 591 L 738 591 M 738 591 A 8 8 0 0 0 746 583 L 746 529" stroke-miterlimit="10"/></g><g transform="translate(-86,-6) scale(1,1)"><path fill="#FFFFFF" stroke="none" d="M 754.419035512032 549.3253497152483 L 746 529 L 737.580964487968 549.3253497152483"/></g><g transform="translate(-86,-6) scale(1,1)"><path fill="none" stroke="#000000" d="M 754.419035512032 549.3253497152483 L 746 529 L 737.580964487968 549.3253497152483 L 754.419035512032 549.3253497152483" stroke-miterlimit="10"/></g></g></svg>