<svg version="1.1" xmlns="http://www.w3.org/2000/svg" xmlns:xlink="http://www.w3.org/1999/xlink" width="772" height="403"><defs/><g><g transform="translate(-206,-22) scale(1,1)"><rect fill="#C0C0C0" stroke="none" x="271" y="57" width="238" height="83" opacity="0.2"/></g><g transform="translate(-206,-22) scale(1,1)"><rect fill="#C0C0C0" stroke="none" x="363" y="39" width="155" height="22" opacity="0.2"/></g><g transform="translate(-206,-22) scale(1,1)"><rect fill="#ffffff" stroke="none" x="264" y="50" width="238" height="83"/></g><g transform="translate(-206,-22) scale(1,1)"><path fill="none" stroke="#000000" d="M 264 50 L 502 50 L 502 133 L 264 133 L 264 50 Z Z" stroke-miterlimit="10"/></g><g transform="translate(-206,-22) scale(1,1)"><path fill="none" stroke="#000000" d="M 264 75 L 502 75" stroke-miterlimit="10"/></g><g transform="translate(-206,-22) scale(1,1)"><path fill="none" stroke="#000000" d="M 264 98 L 502 98" stroke-miterlimit="10"/></g><g transform="translate(-206,-22) scale(1,1)"><g><path fill="none" stroke="none"/><text fill="#000000" stroke="none" font-family="Arial" font-size="13px" font-style="italic" font-weight="bold" text-decoration="none" x="370" y="69.5">Rule</text></g></g><g transform="translate(-206,-22) scale(1,1)"><g><path fill="none" stroke="none"/><text fill="#000000" stroke="none" font-family="Arial" font-size="13px" font-style="normal" font-weight="normal" text-decoration="none" x="269" y="92.5">+ruleName</text></g></g><g transform="translate(-206,-22) scale(1,1)"><g><path fill="none" stroke="none"/><text fill="#000000" stroke="none" font-family="Arial" font-size="13px" font-style="normal" font-weight="normal" text-decoration="none" x="269" y="115.5">+apply(plan: TreeType): TreeType</text></g></g><g transform="translate(-206,-22) scale(1,1)"><rect fill="#ffffff" stroke="none" x="356" y="32" width="155" height="22"/></g><g transform="translate(-206,-22) scale(1,1)"><path fill="none" stroke="#000000" d="M 356 32 L 511 32 L 511 54 L 356 54 L 356 32 Z Z" stroke-miterlimit="10" stroke-dasharray="3"/></g><g transform="translate(-206,-22) scale(1,1)"><g><path fill="none" stroke="none"/><text fill="#000000" stroke="none" font-family="Arial" font-size="13px" font-style="normal" font-weight="normal" text-decoration="none" x="361" y="49.5">TreeType &lt;: TreeNode[_]</text></g></g><g transform="translate(-206,-22) scale(1,1)"><rect fill="#C0C0C0" stroke="none" x="271" y="209" width="241" height="72" opacity="0.2"/></g><g transform="translate(-206,-22) scale(1,1)"><rect fill="#C0C0C0" stroke="none" x="366" y="191" width="155" height="22" opacity="0.2"/></g><g transform="translate(-206,-22) scale(1,1)"><rect fill="#ffffff" stroke="none" x="264" y="202" width="241" height="72"/></g><g transform="translate(-206,-22) scale(1,1)"><path fill="none" stroke="#000000" d="M 264 202 L 505 202 L 505 274 L 264 274 L 264 202 Z Z" stroke-miterlimit="10"/></g><g transform="translate(-206,-22) scale(1,1)"><path fill="none" stroke="#000000" d="M 264 227 L 505 227" stroke-miterlimit="10"/></g><g transform="translate(-206,-22) scale(1,1)"><path fill="none" stroke="#000000" d="M 264 237 L 505 237" stroke-miterlimit="10"/></g><g transform="translate(-206,-22) scale(1,1)"><g><path fill="none" stroke="none"/><text fill="#000000" stroke="none" font-family="Arial" font-size="13px" font-style="italic" font-weight="bold" text-decoration="none" x="345.5" y="221.5">RuleExecutor</text></g></g><g transform="translate(-206,-22) scale(1,1)"><g><path fill="none" stroke="none"/><text fill="#000000" stroke="none" font-family="Arial" font-size="13px" font-style="normal" font-weight="normal" text-decoration="none" x="269" y="254.5">+execute(plan: TreeType): TreeType</text></g></g><g transform="translate(-206,-22) scale(1,1)"><g><path fill="none" stroke="none"/><text fill="#000000" stroke="none" font-family="Arial" font-size="13px" font-style="italic" font-weight="normal" text-decoration="none" x="269" y="269.5">+batches(): Batch[*]</text></g></g><g transform="translate(-206,-22) scale(1,1)"><rect fill="#ffffff" stroke="none" x="359" y="184" width="155" height="22"/></g><g transform="translate(-206,-22) scale(1,1)"><path fill="none" stroke="#000000" d="M 359 184 L 514 184 L 514 206 L 359 206 L 359 184 Z Z" stroke-miterlimit="10" stroke-dasharray="3"/></g><g transform="translate(-206,-22) scale(1,1)"><g><path fill="none" stroke="none"/><text fill="#000000" stroke="none" font-family="Arial" font-size="13px" font-style="normal" font-weight="normal" text-decoration="none" x="364" y="201.5">TreeType &lt;: TreeNode[_]</text></g></g><g transform="translate(-206,-22) scale(1,1)"><rect fill="#C0C0C0" stroke="none" x="223" y="335" width="125" height="87" opacity="0.2"/></g><g transform="translate(-206,-22) scale(1,1)"><rect fill="#ffffff" stroke="none" x="216" y="328" width="125" height="87"/></g><g transform="translate(-206,-22) scale(1,1)"><path fill="none" stroke="#000000" d="M 216 328 L 341 328 L 341 415 L 216 415 L 216 328 Z Z" stroke-miterlimit="10"/></g><g transform="translate(-206,-22) scale(1,1)"><path fill="none" stroke="#000000" d="M 216 353 L 341 353" stroke-miterlimit="10"/></g><g transform="translate(-206,-22) scale(1,1)"><path fill="none" stroke="#000000" d="M 216 406 L 341 406" stroke-miterlimit="10"/></g><g transform="translate(-206,-22) scale(1,1)"><g><path fill="none" stroke="none"/><text fill="#000000" stroke="none" font-family="Arial" font-size="13px" font-style="normal" font-weight="bold" text-decoration="none" x="253" y="347.5">Analyzer</text></g></g><g transform="translate(-206,-22) scale(1,1)"><g><path fill="none" stroke="none"/><text fill="#000000" stroke="none" font-family="Arial" font-size="13px" font-style="normal" font-weight="normal" text-decoration="none" x="221" y="370.5">+catalog</text></g></g><g transform="translate(-206,-22) scale(1,1)"><g><path fill="none" stroke="none"/><text fill="#000000" stroke="none" font-family="Arial" font-size="13px" font-style="normal" font-weight="normal" text-decoration="none" x="221" y="385.5">+conf: CatalystConf</text></g></g><g transform="translate(-206,-22) scale(1,1)"><g><path fill="none" stroke="none"/><text fill="#000000" stroke="none" font-family="Arial" font-size="13px" font-style="normal" font-weight="normal" text-decoration="none" x="221" y="400.5">+maxIterations: Int</text></g></g><g transform="translate(-206,-22) scale(1,1)"><rect fill="#C0C0C0" stroke="none" x="759" y="55" width="127" height="57" opacity="0.2"/></g><g transform="translate(-206,-22) scale(1,1)"><rect fill="#ffffff" stroke="none" x="752" y="48" width="127" height="57"/></g><g transform="translate(-206,-22) scale(1,1)"><path fill="none" stroke="#000000" d="M 752 48 L 879 48 L 879 105 L 752 105 L 752 48 Z Z" stroke-miterlimit="10"/></g><g transform="translate(-206,-22) scale(1,1)"><path fill="none" stroke="#000000" d="M 752 73 L 879 73" stroke-miterlimit="10"/></g><g transform="translate(-206,-22) scale(1,1)"><path fill="none" stroke="#000000" d="M 752 83 L 879 83" stroke-miterlimit="10"/></g><g transform="translate(-206,-22) scale(1,1)"><g><path fill="none" stroke="none"/><text fill="#000000" stroke="none" font-family="Arial" font-size="13px" font-style="normal" font-weight="bold" text-decoration="none" x="791" y="67.5">Strategy</text></g></g><g transform="translate(-206,-22) scale(1,1)"><g><path fill="none" stroke="none"/><text fill="#000000" stroke="none" font-family="Arial" font-size="13px" font-style="normal" font-weight="normal" text-decoration="none" x="757" y="100.5">+maxIterations(): Int</text></g></g><g transform="translate(-206,-22) scale(1,1)"><rect fill="#C0C0C0" stroke="none" x="655" y="159" width="152" height="57" opacity="0.2"/></g><g transform="translate(-206,-22) scale(1,1)"><rect fill="#ffffff" stroke="none" x="648" y="152" width="152" height="57"/></g><g transform="translate(-206,-22) scale(1,1)"><path fill="none" stroke="#000000" d="M 648 152 L 800 152 L 800 209 L 648 209 L 648 152 Z Z" stroke-miterlimit="10"/></g><g transform="translate(-206,-22) scale(1,1)"><path fill="none" stroke="#000000" d="M 648 177 L 800 177" stroke-miterlimit="10"/></g><g transform="translate(-206,-22) scale(1,1)"><path fill="none" stroke="#000000" d="M 648 200 L 800 200" stroke-miterlimit="10"/></g><g transform="translate(-206,-22) scale(1,1)"><g><path fill="none" stroke="none"/><text fill="#000000" stroke="none" font-family="Arial" font-size="13px" font-style="normal" font-weight="bold" text-decoration="none" x="708.5" y="171.5">Once</text></g></g><g transform="translate(-206,-22) scale(1,1)"><g><path fill="none" stroke="none"/><text fill="#000000" stroke="none" font-family="Arial" font-size="13px" font-style="normal" font-weight="normal" text-decoration="none" x="653" y="194.5">+maxIterations = 1</text></g></g><g transform="translate(-206,-22) scale(1,1)"><rect fill="#C0C0C0" stroke="none" x="847" y="159" width="128" height="56" opacity="0.2"/></g><g transform="translate(-206,-22) scale(1,1)"><rect fill="#ffffff" stroke="none" x="840" y="152" width="128" height="56"/></g><g transform="translate(-206,-22) scale(1,1)"><path fill="none" stroke="#000000" d="M 840 152 L 968 152 L 968 208 L 840 208 L 840 152 Z Z" stroke-miterlimit="10"/></g><g transform="translate(-206,-22) scale(1,1)"><path fill="none" stroke="#000000" d="M 840 177 L 968 177" stroke-miterlimit="10"/></g><g transform="translate(-206,-22) scale(1,1)"><path fill="none" stroke="#000000" d="M 840 187 L 968 187" stroke-miterlimit="10"/></g><g transform="translate(-206,-22) scale(1,1)"><g><path fill="none" stroke="none"/><text fill="#000000" stroke="none" font-family="Arial" font-size="13px" font-style="normal" font-weight="bold" text-decoration="none" x="873" y="171.5">FixedPoint</text></g></g><g transform="translate(-206,-22) scale(1,1)"><rect fill="#C0C0C0" stroke="none" x="735" y="263" width="194" height="87" opacity="0.2"/></g><g transform="translate(-206,-22) scale(1,1)"><rect fill="#ffffff" stroke="none" x="728" y="256" width="194" height="87"/></g><g transform="translate(-206,-22) scale(1,1)"><path fill="none" stroke="#000000" d="M 728 256 L 922 256 L 922 343 L 728 343 L 728 256 Z Z" stroke-miterlimit="10"/></g><g transform="translate(-206,-22) scale(1,1)"><path fill="none" stroke="#000000" d="M 728 281 L 922 281" stroke-miterlimit="10"/></g><g transform="translate(-206,-22) scale(1,1)"><path fill="none" stroke="#000000" d="M 728 334 L 922 334" stroke-miterlimit="10"/></g><g transform="translate(-206,-22) scale(1,1)"><g><path fill="none" stroke="none"/><text fill="#000000" stroke="none" font-family="Arial" font-size="13px" font-style="normal" font-weight="bold" text-decoration="none" x="808" y="275.5">Batch</text></g></g><g transform="translate(-206,-22) scale(1,1)"><g><path fill="none" stroke="none"/><text fill="#000000" stroke="none" font-family="Arial" font-size="13px" font-style="normal" font-weight="normal" text-decoration="none" x="733" y="298.5">+name</text></g></g><g transform="translate(-206,-22) scale(1,1)"><g><path fill="none" stroke="none"/><text fill="#000000" stroke="none" font-family="Arial" font-size="13px" font-style="normal" font-weight="normal" text-decoration="none" x="733" y="313.5">+strategy: Strategy</text></g></g><g transform="translate(-206,-22) scale(1,1)"><g><path fill="none" stroke="none"/><text fill="#000000" stroke="none" font-family="Arial" font-size="13px" font-style="normal" font-weight="normal" text-decoration="none" x="733" y="328.5">+rules: Rule[TreeType] [*]</text></g></g><g transform="translate(-206,-22) scale(1,1)"><rect fill="#C0C0C0" stroke="none" x="447" y="335" width="125" height="87" opacity="0.2"/></g><g transform="translate(-206,-22) scale(1,1)"><rect fill="#ffffff" stroke="none" x="440" y="328" width="125" height="87"/></g><g transform="translate(-206,-22) scale(1,1)"><path fill="none" stroke="#000000" d="M 440 328 L 565 328 L 565 415 L 440 415 L 440 328 Z Z" stroke-miterlimit="10"/></g><g transform="translate(-206,-22) scale(1,1)"><path fill="none" stroke="#000000" d="M 440 368 L 565 368" stroke-miterlimit="10"/></g><g transform="translate(-206,-22) scale(1,1)"><path fill="none" stroke="#000000" d="M 440 406 L 565 406" stroke-miterlimit="10"/></g><g transform="translate(-206,-22) scale(1,1)"><g><path fill="none" stroke="none"/><text fill="#000000" stroke="none" font-family="Arial" font-size="13px" font-style="normal" font-weight="bold" text-decoration="none" x="474.5" y="347.5">Optimizer</text></g></g><g transform="translate(-206,-22) scale(1,1)"><g><path fill="none" stroke="none"/><text fill="#000000" stroke="none" font-family="Arial" font-size="13px" font-style="normal" font-weight="normal" text-decoration="none" x="457" y="362.5">(from optimizer)</text></g></g><g transform="translate(-206,-22) scale(1,1)"><g><path fill="none" stroke="none"/><text fill="#000000" stroke="none" font-family="Arial" font-size="13px" font-style="normal" font-weight="normal" text-decoration="none" x="445" y="385.5">+catalog</text></g></g><g transform="translate(-206,-22) scale(1,1)"><g><path fill="none" stroke="none"/><text fill="#000000" stroke="none" font-family="Arial" font-size="13px" font-style="normal" font-weight="normal" text-decoration="none" x="445" y="400.5">+conf: CatalystConf</text></g></g><g transform="translate(-206,-22) scale(1,1)"><path fill="none" stroke="#000000" d="M 312 328 L 312 274" stroke-miterlimit="10"/></g><g transform="translate(-206,-22) scale(1,1)"><path fill="#FFFFFF" stroke="none" d="M 320.419035512032 294.3253497152483 L 312 274 L 303.580964487968 294.3253497152483"/></g><g transform="translate(-206,-22) scale(1,1)"><path fill="none" stroke="#000000" d="M 320.419035512032 294.3253497152483 L 312 274 L 303.580964487968 294.3253497152483 L 320.419035512032 294.3253497152483" stroke-miterlimit="10"/></g><g transform="translate(-206,-22) scale(1,1)"><path fill="none" stroke="#000000" d="M 464 328 L 464 274" stroke-miterlimit="10"/></g><g transform="translate(-206,-22) scale(1,1)"><path fill="#FFFFFF" stroke="none" d="M 472.419035512032 294.3253497152483 L 464 274 L 455.580964487968 294.3253497152483"/></g><g transform="translate(-206,-22) scale(1,1)"><path fill="none" stroke="#000000" d="M 472.419035512032 294.3253497152483 L 464 274 L 455.580964487968 294.3253497152483 L 472.419035512032 294.3253497152483" stroke-miterlimit="10"/></g><g transform="translate(-206,-22) scale(1,1)"><path fill="none" stroke="#000000" d="M 776 152 L 776 105" stroke-miterlimit="10"/></g><g transform="translate(-206,-22) scale(1,1)"><path fill="#FFFFFF" stroke="none" d="M 784.419035512032 125.32534971524831 L 776 105 L 767.580964487968 125.32534971524831"/></g><g transform="translate(-206,-22) scale(1,1)"><path fill="none" stroke="#000000" d="M 784.419035512032 125.32534971524831 L 776 105 L 767.580964487968 125.32534971524831 L 784.419035512032 125.32534971524831" stroke-miterlimit="10"/></g><g transform="translate(-206,-22) scale(1,1)"><path fill="none" stroke="#000000" d="M 856 152 L 856 105" stroke-miterlimit="10"/></g><g transform="translate(-206,-22) scale(1,1)"><path fill="#FFFFFF" stroke="none" d="M 864.419035512032 125.32534971524831 L 856 105 L 847.580964487968 125.32534971524831"/></g><g transform="translate(-206,-22) scale(1,1)"><path fill="none" stroke="#000000" d="M 864.419035512032 125.32534971524831 L 856 105 L 847.580964487968 125.32534971524831 L 864.419035512032 125.32534971524831" stroke-miterlimit="10"/></g></g></svg>