<svg version="1.1" xmlns="http://www.w3.org/2000/svg" xmlns:xlink="http://www.w3.org/1999/xlink" width="867" height="574"><defs/><g><g transform="translate(-134,-70) scale(1,1)"><rect fill="#C0C0C0" stroke="none" x="391" y="105" width="372" height="38" opacity="0.2"/></g><g transform="translate(-134,-70) scale(1,1)"><rect fill="#C0C0C0" stroke="none" x="561" y="87" width="211" height="22" opacity="0.2"/></g><g transform="translate(-134,-70) scale(1,1)"><rect fill="#ffffff" stroke="none" x="384" y="98" width="372" height="38"/></g><g transform="translate(-134,-70) scale(1,1)"><path fill="none" stroke="#000000" d="M 384 98 L 756 98 L 756 136 L 384 136 L 384 98 Z Z" stroke-miterlimit="10"/></g><g transform="translate(-134,-70) scale(1,1)"><path fill="none" stroke="#000000" d="M 384 123 L 756 123" stroke-miterlimit="10"/></g><g transform="translate(-134,-70) scale(1,1)"><g><path fill="none" stroke="none"/><text fill="#000000" stroke="none" font-family="Arial" font-size="13px" font-style="italic" font-weight="bold" text-decoration="none" x="542" y="117.5">TreeNode</text></g></g><g transform="translate(-134,-70) scale(1,1)"><rect fill="#ffffff" stroke="none" x="554" y="80" width="211" height="22"/></g><g transform="translate(-134,-70) scale(1,1)"><path fill="none" stroke="#000000" d="M 554 80 L 765 80 L 765 102 L 554 102 L 554 80 Z Z" stroke-miterlimit="10" stroke-dasharray="3"/></g><g transform="translate(-134,-70) scale(1,1)"><g><path fill="none" stroke="none"/><text fill="#000000" stroke="none" font-family="Arial" font-size="13px" font-style="normal" font-weight="normal" text-decoration="none" x="559" y="97.5">BaseType &lt;: TreeNode[BaseType]</text></g></g><g transform="translate(-134,-70) scale(1,1)"><rect fill="#C0C0C0" stroke="none" x="487" y="183" width="199" height="130" opacity="0.2"/></g><g transform="translate(-134,-70) scale(1,1)"><rect fill="#ffffff" stroke="none" x="480" y="176" width="199" height="130"/></g><g transform="translate(-134,-70) scale(1,1)"><path fill="none" stroke="#000000" d="M 480 176 L 679 176 L 679 306 L 480 306 L 480 176 Z Z" stroke-miterlimit="10"/></g><g transform="translate(-134,-70) scale(1,1)"><path fill="none" stroke="#000000" d="M 480 201 L 679 201" stroke-miterlimit="10"/></g><g transform="translate(-134,-70) scale(1,1)"><path fill="none" stroke="#000000" d="M 480 224 L 679 224" stroke-miterlimit="10"/></g><g transform="translate(-134,-70) scale(1,1)"><g><path fill="none" stroke="none"/><text fill="#000000" stroke="none" font-family="Arial" font-size="13px" font-style="italic" font-weight="bold" text-decoration="none" x="549" y="195.5">QueryPlan</text></g></g><g transform="translate(-134,-70) scale(1,1)"><g><path fill="none" stroke="none"/><text fill="#000000" stroke="none" font-family="Arial" font-size="13px" font-style="normal" font-weight="normal" text-decoration="none" x="485" y="218.5">+schema: StructType</text></g></g><g transform="translate(-134,-70) scale(1,1)"><g><path fill="none" stroke="none"/><text fill="#000000" stroke="none" font-family="Arial" font-size="13px" font-style="normal" font-weight="normal" text-decoration="none" x="485" y="241.5">+outputSet(): AttributeSet</text></g></g><g transform="translate(-134,-70) scale(1,1)"><g><path fill="none" stroke="none"/><text fill="#000000" stroke="none" font-family="Arial" font-size="13px" font-style="normal" font-weight="normal" text-decoration="none" x="485" y="256.5">+inputSet(): AttributeSet</text></g></g><g transform="translate(-134,-70) scale(1,1)"><g><path fill="none" stroke="none"/><text fill="#000000" stroke="none" font-family="Arial" font-size="13px" font-style="normal" font-weight="normal" text-decoration="none" x="485" y="271.5">+constraints(): ExpressionSet</text></g></g><g transform="translate(-134,-70) scale(1,1)"><g><path fill="none" stroke="none"/><text fill="#000000" stroke="none" font-family="Arial" font-size="13px" font-style="normal" font-weight="normal" text-decoration="none" x="485" y="286.5">+references(): AttributeSet</text></g></g><g transform="translate(-134,-70) scale(1,1)"><g><path fill="none" stroke="none"/><text fill="#000000" stroke="none" font-family="Arial" font-size="13px" font-style="normal" font-weight="normal" text-decoration="none" x="485" y="301.5">+expressions(): Seq[Expression]</text></g></g><g transform="translate(-134,-70) scale(1,1)"><rect fill="#C0C0C0" stroke="none" x="151" y="471" width="67" height="44" opacity="0.2"/></g><g transform="translate(-134,-70) scale(1,1)"><rect fill="#ffffff" stroke="none" x="144" y="464" width="67" height="44"/></g><g transform="translate(-134,-70) scale(1,1)"><path fill="none" stroke="#000000" d="M 144 464 L 211 464 L 211 508 L 144 508 L 144 464 Z Z" stroke-miterlimit="10"/></g><g transform="translate(-134,-70) scale(1,1)"><path fill="none" stroke="#000000" d="M 144 489 L 211 489" stroke-miterlimit="10"/></g><g transform="translate(-134,-70) scale(1,1)"><path fill="none" stroke="#000000" d="M 144 499 L 211 499" stroke-miterlimit="10"/></g><g transform="translate(-134,-70) scale(1,1)"><g><path fill="none" stroke="none"/><text fill="#000000" stroke="none" font-family="Arial" font-size="13px" font-style="normal" font-weight="bold" text-decoration="none" x="150" y="483.5">LeafNode</text></g></g><g transform="translate(-134,-70) scale(1,1)"><rect fill="#C0C0C0" stroke="none" x="311" y="471" width="77" height="44" opacity="0.2"/></g><g transform="translate(-134,-70) scale(1,1)"><rect fill="#ffffff" stroke="none" x="304" y="464" width="77" height="44"/></g><g transform="translate(-134,-70) scale(1,1)"><path fill="none" stroke="#000000" d="M 304 464 L 381 464 L 381 508 L 304 508 L 304 464 Z Z" stroke-miterlimit="10"/></g><g transform="translate(-134,-70) scale(1,1)"><path fill="none" stroke="#000000" d="M 304 489 L 381 489" stroke-miterlimit="10"/></g><g transform="translate(-134,-70) scale(1,1)"><path fill="none" stroke="#000000" d="M 304 499 L 381 499" stroke-miterlimit="10"/></g><g transform="translate(-134,-70) scale(1,1)"><g><path fill="none" stroke="none"/><text fill="#000000" stroke="none" font-family="Arial" font-size="13px" font-style="normal" font-weight="bold" text-decoration="none" x="310.5" y="483.5">UnaryNode</text></g></g><g transform="translate(-134,-70) scale(1,1)"><rect fill="#C0C0C0" stroke="none" x="463" y="471" width="81" height="44" opacity="0.2"/></g><g transform="translate(-134,-70) scale(1,1)"><rect fill="#ffffff" stroke="none" x="456" y="464" width="81" height="44"/></g><g transform="translate(-134,-70) scale(1,1)"><path fill="none" stroke="#000000" d="M 456 464 L 537 464 L 537 508 L 456 508 L 456 464 Z Z" stroke-miterlimit="10"/></g><g transform="translate(-134,-70) scale(1,1)"><path fill="none" stroke="#000000" d="M 456 489 L 537 489" stroke-miterlimit="10"/></g><g transform="translate(-134,-70) scale(1,1)"><path fill="none" stroke="#000000" d="M 456 499 L 537 499" stroke-miterlimit="10"/></g><g transform="translate(-134,-70) scale(1,1)"><g><path fill="none" stroke="none"/><text fill="#000000" stroke="none" font-family="Arial" font-size="13px" font-style="normal" font-weight="bold" text-decoration="none" x="463" y="483.5">BinaryNode</text></g></g><g transform="translate(-134,-70) scale(1,1)"><rect fill="#C0C0C0" stroke="none" x="151" y="335" width="394" height="87" opacity="0.2"/></g><g transform="translate(-134,-70) scale(1,1)"><rect fill="#ffffff" stroke="none" x="144" y="328" width="394" height="87"/></g><g transform="translate(-134,-70) scale(1,1)"><path fill="none" stroke="#000000" d="M 144 328 L 538 328 L 538 415 L 144 415 L 144 328 Z Z" stroke-miterlimit="10"/></g><g transform="translate(-134,-70) scale(1,1)"><path fill="none" stroke="#000000" d="M 144 353 L 538 353" stroke-miterlimit="10"/></g><g transform="translate(-134,-70) scale(1,1)"><path fill="none" stroke="#000000" d="M 144 363 L 538 363" stroke-miterlimit="10"/></g><g transform="translate(-134,-70) scale(1,1)"><g><path fill="none" stroke="none"/><text fill="#000000" stroke="none" font-family="Arial" font-size="13px" font-style="normal" font-weight="bold" text-decoration="none" x="307.5" y="347.5">LogicalPlan</text></g></g><g transform="translate(-134,-70) scale(1,1)"><g><path fill="none" stroke="none"/><text fill="#000000" stroke="none" font-family="Arial" font-size="13px" font-style="normal" font-weight="normal" text-decoration="none" x="149" y="380.5">+analyzed(): Boolean</text></g></g><g transform="translate(-134,-70) scale(1,1)"><g><path fill="none" stroke="none"/><text fill="#000000" stroke="none" font-family="Arial" font-size="13px" font-style="normal" font-weight="normal" text-decoration="none" x="149" y="395.5">+resolved(): Boolean</text></g></g><g transform="translate(-134,-70) scale(1,1)"><g><path fill="none" stroke="none"/><text fill="#000000" stroke="none" font-family="Arial" font-size="13px" font-style="normal" font-weight="normal" text-decoration="none" x="149" y="410.5">+resolve(schema: StructType, resolver: Resolver): Seq[Attribute]()</text></g></g><g transform="translate(-134,-70) scale(1,1)"><rect fill="#C0C0C0" stroke="none" x="623" y="335" width="368" height="85" opacity="0.2"/></g><g transform="translate(-134,-70) scale(1,1)"><rect fill="#ffffff" stroke="none" x="616" y="328" width="368" height="85"/></g><g transform="translate(-134,-70) scale(1,1)"><path fill="none" stroke="#000000" d="M 616 328 L 984 328 L 984 413 L 616 413 L 616 328 Z Z" stroke-miterlimit="10"/></g><g transform="translate(-134,-70) scale(1,1)"><path fill="none" stroke="#000000" d="M 616 368 L 984 368" stroke-miterlimit="10"/></g><g transform="translate(-134,-70) scale(1,1)"><path fill="none" stroke="#000000" d="M 616 391 L 984 391" stroke-miterlimit="10"/></g><g transform="translate(-134,-70) scale(1,1)"><g><path fill="none" stroke="none"/><text fill="#000000" stroke="none" font-family="Arial" font-size="13px" font-style="italic" font-weight="bold" text-decoration="none" x="770" y="347.5">SparkPlan</text></g></g><g transform="translate(-134,-70) scale(1,1)"><g><path fill="none" stroke="none"/><text fill="#000000" stroke="none" font-family="Arial" font-size="13px" font-style="normal" font-weight="normal" text-decoration="none" x="753" y="362.5">(from execution)</text></g></g><g transform="translate(-134,-70) scale(1,1)"><g><path fill="none" stroke="none"/><text fill="#000000" stroke="none" font-family="Arial" font-size="13px" font-style="normal" font-weight="normal" text-decoration="none" x="621" y="385.5">+sqlContext</text></g></g><g transform="translate(-134,-70) scale(1,1)"><g><path fill="none" stroke="none"/><text fill="#000000" stroke="none" font-family="Arial" font-size="13px" font-style="normal" font-weight="normal" text-decoration="none" x="621" y="408.5">+execute(): RDD[InternalRow]</text></g></g><g transform="translate(-134,-70) scale(1,1)"><rect fill="#C0C0C0" stroke="none" x="151" y="567" width="106" height="44" opacity="0.2"/></g><g transform="translate(-134,-70) scale(1,1)"><rect fill="#ffffff" stroke="none" x="144" y="560" width="106" height="44"/></g><g transform="translate(-134,-70) scale(1,1)"><path fill="none" stroke="#000000" d="M 144 560 L 250 560 L 250 604 L 144 604 L 144 560 Z Z" stroke-miterlimit="10"/></g><g transform="translate(-134,-70) scale(1,1)"><path fill="none" stroke="#000000" d="M 144 585 L 250 585" stroke-miterlimit="10"/></g><g transform="translate(-134,-70) scale(1,1)"><path fill="none" stroke="#000000" d="M 144 595 L 250 595" stroke-miterlimit="10"/></g><g transform="translate(-134,-70) scale(1,1)"><g><path fill="none" stroke="none"/><text fill="#000000" stroke="none" font-family="Arial" font-size="13px" font-style="normal" font-weight="bold" text-decoration="none" x="158" y="579.5">LocalRelation</text></g></g><g transform="translate(-134,-70) scale(1,1)"><rect fill="#C0C0C0" stroke="none" x="615" y="471" width="97" height="44" opacity="0.2"/></g><g transform="translate(-134,-70) scale(1,1)"><rect fill="#ffffff" stroke="none" x="608" y="464" width="97" height="44"/></g><g transform="translate(-134,-70) scale(1,1)"><path fill="none" stroke="#000000" d="M 608 464 L 705 464 L 705 508 L 608 508 L 608 464 Z Z" stroke-miterlimit="10"/></g><g transform="translate(-134,-70) scale(1,1)"><path fill="none" stroke="#000000" d="M 608 489 L 705 489" stroke-miterlimit="10"/></g><g transform="translate(-134,-70) scale(1,1)"><path fill="none" stroke="#000000" d="M 608 499 L 705 499" stroke-miterlimit="10"/></g><g transform="translate(-134,-70) scale(1,1)"><g><path fill="none" stroke="none"/><text fill="#000000" stroke="none" font-family="Arial" font-size="13px" font-style="normal" font-weight="bold" text-decoration="none" x="614" y="483.5">LeafExecNode</text></g></g><g transform="translate(-134,-70) scale(1,1)"><rect fill="#C0C0C0" stroke="none" x="751" y="471" width="107" height="44" opacity="0.2"/></g><g transform="translate(-134,-70) scale(1,1)"><rect fill="#ffffff" stroke="none" x="744" y="464" width="107" height="44"/></g><g transform="translate(-134,-70) scale(1,1)"><path fill="none" stroke="#000000" d="M 744 464 L 851 464 L 851 508 L 744 508 L 744 464 Z Z" stroke-miterlimit="10"/></g><g transform="translate(-134,-70) scale(1,1)"><path fill="none" stroke="#000000" d="M 744 489 L 851 489" stroke-miterlimit="10"/></g><g transform="translate(-134,-70) scale(1,1)"><path fill="none" stroke="#000000" d="M 744 499 L 851 499" stroke-miterlimit="10"/></g><g transform="translate(-134,-70) scale(1,1)"><g><path fill="none" stroke="none"/><text fill="#000000" stroke="none" font-family="Arial" font-size="13px" font-style="normal" font-weight="bold" text-decoration="none" x="750.5" y="483.5">UnaryExecNode</text></g></g><g transform="translate(-134,-70) scale(1,1)"><rect fill="#C0C0C0" stroke="none" x="887" y="471" width="111" height="44" opacity="0.2"/></g><g transform="translate(-134,-70) scale(1,1)"><rect fill="#ffffff" stroke="none" x="880" y="464" width="111" height="44"/></g><g transform="translate(-134,-70) scale(1,1)"><path fill="none" stroke="#000000" d="M 880 464 L 991 464 L 991 508 L 880 508 L 880 464 Z Z" stroke-miterlimit="10"/></g><g transform="translate(-134,-70) scale(1,1)"><path fill="none" stroke="#000000" d="M 880 489 L 991 489" stroke-miterlimit="10"/></g><g transform="translate(-134,-70) scale(1,1)"><path fill="none" stroke="#000000" d="M 880 499 L 991 499" stroke-miterlimit="10"/></g><g transform="translate(-134,-70) scale(1,1)"><g><path fill="none" stroke="none"/><text fill="#000000" stroke="none" font-family="Arial" font-size="13px" font-style="normal" font-weight="bold" text-decoration="none" x="887" y="483.5">BinaryExecNode</text></g></g><g transform="translate(-134,-70) scale(1,1)"><path fill="none" stroke="#000000" d="M 577 176 L 577 136" stroke-miterlimit="10"/></g><g transform="translate(-134,-70) scale(1,1)"><path fill="#FFFFFF" stroke="none" d="M 585.419035512032 156.3253497152483 L 577 136 L 568.580964487968 156.3253497152483"/></g><g transform="translate(-134,-70) scale(1,1)"><path fill="none" stroke="#000000" d="M 585.419035512032 156.3253497152483 L 577 136 L 568.580964487968 156.3253497152483 L 585.419035512032 156.3253497152483" stroke-miterlimit="10"/></g><g transform="translate(-134,-70) scale(1,1)"><path fill="none" stroke="#000000" d="M 344 328 L 344 248 M 344 248 A 8 8 0 0 1 352 240 L 480 240" stroke-miterlimit="10"/></g><g transform="translate(-134,-70) scale(1,1)"><path fill="#FFFFFF" stroke="none" d="M 459.6746502847517 248.41903551203197 L 480 240 L 459.6746502847517 231.58096448796803"/></g><g transform="translate(-134,-70) scale(1,1)"><path fill="none" stroke="#000000" d="M 459.6746502847517 248.41903551203197 L 480 240 L 459.6746502847517 231.58096448796803 L 459.6746502847517 248.41903551203197" stroke-miterlimit="10"/></g><g transform="translate(-134,-70) scale(1,1)"><path fill="none" stroke="#000000" d="M 800 328 L 800 248 M 800 248 A 8 8 0 0 0 792 240 L 679 240" stroke-miterlimit="10"/></g><g transform="translate(-134,-70) scale(1,1)"><path fill="#FFFFFF" stroke="none" d="M 699.3253497152483 231.58096448796803 L 679 240 L 699.3253497152483 248.41903551203197"/></g><g transform="translate(-134,-70) scale(1,1)"><path fill="none" stroke="#000000" d="M 699.3253497152483 231.58096448796803 L 679 240 L 699.3253497152483 248.41903551203197 L 699.3253497152483 231.58096448796803" stroke-miterlimit="10"/></g><g transform="translate(-134,-70) scale(1,1)"><path fill="none" stroke="#000000" d="M 176 464 L 176 415" stroke-miterlimit="10"/></g><g transform="translate(-134,-70) scale(1,1)"><path fill="#FFFFFF" stroke="none" d="M 184.41903551203197 435.3253497152483 L 176 415 L 167.58096448796803 435.3253497152483"/></g><g transform="translate(-134,-70) scale(1,1)"><path fill="none" stroke="#000000" d="M 184.41903551203197 435.3253497152483 L 176 415 L 167.58096448796803 435.3253497152483 L 184.41903551203197 435.3253497152483" stroke-miterlimit="10"/></g><g transform="translate(-134,-70) scale(1,1)"><path fill="none" stroke="#000000" d="M 341 464 L 341 415" stroke-miterlimit="10"/></g><g transform="translate(-134,-70) scale(1,1)"><path fill="#FFFFFF" stroke="none" d="M 349.419035512032 435.3253497152483 L 341 415 L 332.580964487968 435.3253497152483"/></g><g transform="translate(-134,-70) scale(1,1)"><path fill="none" stroke="#000000" d="M 349.419035512032 435.3253497152483 L 341 415 L 332.580964487968 435.3253497152483 L 349.419035512032 435.3253497152483" stroke-miterlimit="10"/></g><g transform="translate(-134,-70) scale(1,1)"><path fill="none" stroke="#000000" d="M 496 464 L 496 415" stroke-miterlimit="10"/></g><g transform="translate(-134,-70) scale(1,1)"><path fill="#FFFFFF" stroke="none" d="M 504.419035512032 435.3253497152483 L 496 415 L 487.580964487968 435.3253497152483"/></g><g transform="translate(-134,-70) scale(1,1)"><path fill="none" stroke="#000000" d="M 504.419035512032 435.3253497152483 L 496 415 L 487.580964487968 435.3253497152483 L 504.419035512032 435.3253497152483" stroke-miterlimit="10"/></g><g transform="translate(-134,-70) scale(1,1)"><path fill="none" stroke="#000000" d="M 178 560 L 178 508" stroke-miterlimit="10"/></g><g transform="translate(-134,-70) scale(1,1)"><path fill="#FFFFFF" stroke="none" d="M 186.41903551203197 528.3253497152483 L 178 508 L 169.58096448796803 528.3253497152483"/></g><g transform="translate(-134,-70) scale(1,1)"><path fill="none" stroke="#000000" d="M 186.41903551203197 528.3253497152483 L 178 508 L 169.58096448796803 528.3253497152483 L 186.41903551203197 528.3253497152483" stroke-miterlimit="10"/></g><g transform="translate(-134,-70) scale(1,1)"><path fill="none" stroke="#000000" d="M 656 464 L 656 413" stroke-miterlimit="10"/></g><g transform="translate(-134,-70) scale(1,1)"><path fill="#FFFFFF" stroke="none" d="M 664.419035512032 433.3253497152483 L 656 413 L 647.580964487968 433.3253497152483"/></g><g transform="translate(-134,-70) scale(1,1)"><path fill="none" stroke="#000000" d="M 664.419035512032 433.3253497152483 L 656 413 L 647.580964487968 433.3253497152483 L 664.419035512032 433.3253497152483" stroke-miterlimit="10"/></g><g transform="translate(-134,-70) scale(1,1)"><path fill="none" stroke="#000000" d="M 800 464 L 800 413" stroke-miterlimit="10"/></g><g transform="translate(-134,-70) scale(1,1)"><path fill="#FFFFFF" stroke="none" d="M 808.419035512032 433.3253497152483 L 800 413 L 791.580964487968 433.3253497152483"/></g><g transform="translate(-134,-70) scale(1,1)"><path fill="none" stroke="#000000" d="M 808.419035512032 433.3253497152483 L 800 413 L 791.580964487968 433.3253497152483 L 808.419035512032 433.3253497152483" stroke-miterlimit="10"/></g><g transform="translate(-134,-70) scale(1,1)"><path fill="none" stroke="#000000" d="M 928 464 L 928 413" stroke-miterlimit="10"/></g><g transform="translate(-134,-70) scale(1,1)"><path fill="#FFFFFF" stroke="none" d="M 936.419035512032 433.3253497152483 L 928 413 L 919.580964487968 433.3253497152483"/></g><g transform="translate(-134,-70) scale(1,1)"><path fill="none" stroke="#000000" d="M 936.419035512032 433.3253497152483 L 928 413 L 919.580964487968 433.3253497152483 L 936.419035512032 433.3253497152483" stroke-miterlimit="10"/></g><g transform="translate(-134,-70) scale(1,1)"><rect fill="#C0C0C0" stroke="none" x="447" y="569" width="319" height="72" opacity="0.2"/></g><g transform="translate(-134,-70) scale(1,1)"><rect fill="#C0C0C0" stroke="none" x="522" y="551" width="253" height="22" opacity="0.2"/></g><g transform="translate(-134,-70) scale(1,1)"><rect fill="#ffffff" stroke="none" x="440" y="562" width="319" height="72"/></g><g transform="translate(-134,-70) scale(1,1)"><path fill="none" stroke="#000000" d="M 440 562 L 759 562 L 759 634 L 440 634 L 440 562 Z Z" stroke-miterlimit="10"/></g><g transform="translate(-134,-70) scale(1,1)"><path fill="none" stroke="#000000" d="M 440 587 L 759 587" stroke-miterlimit="10"/></g><g transform="translate(-134,-70) scale(1,1)"><path fill="none" stroke="#000000" d="M 440 597 L 759 597" stroke-miterlimit="10"/></g><g transform="translate(-134,-70) scale(1,1)"><g><path fill="none" stroke="none"/><text fill="#000000" stroke="none" font-family="Arial" font-size="13px" font-style="italic" font-weight="bold" text-decoration="none" x="560" y="581.5">QueryPlanner</text></g></g><g transform="translate(-134,-70) scale(1,1)"><g><path fill="none" stroke="none"/><text fill="#000000" stroke="none" font-family="Arial" font-size="13px" font-style="normal" font-weight="normal" text-decoration="none" x="445" y="614.5">+strategies(): Seq[GenericStrategy[PhysicalPlan]]</text></g></g><g transform="translate(-134,-70) scale(1,1)"><g><path fill="none" stroke="none"/><text fill="#000000" stroke="none" font-family="Arial" font-size="13px" font-style="normal" font-weight="normal" text-decoration="none" x="445" y="629.5">+plan(plan: LogicalPlan): Iterator[PhysicalPlan]</text></g></g><g transform="translate(-134,-70) scale(1,1)"><rect fill="#ffffff" stroke="none" x="515" y="544" width="253" height="22"/></g><g transform="translate(-134,-70) scale(1,1)"><path fill="none" stroke="#000000" d="M 515 544 L 768 544 L 768 566 L 515 566 L 515 544 Z Z" stroke-miterlimit="10" stroke-dasharray="3"/></g><g transform="translate(-134,-70) scale(1,1)"><g><path fill="none" stroke="none"/><text fill="#000000" stroke="none" font-family="Arial" font-size="13px" font-style="normal" font-weight="normal" text-decoration="none" x="520" y="561.5">[PhysicalPlan &lt;: TreeNode[PhysicalPlan]]</text></g></g></g></svg>